<?xml version="1.0" encoding="UTF-8"?>
<svg xmlns="http://www.w3.org/2000/svg" xmlns:xlink="http://www.w3.org/1999/xlink" viewBox="0 0 60 60" width="60px" height="60px">
<g id="surface11450412">
<path style=" stroke:none;fill-rule:nonzero;fill:rgb(54.11765%,57.647061%,60.784316%);fill-opacity:1;" d="M 50.238281 13.890625 C 45.390625 9.996094 37.726562 9.335938 37.402344 9.308594 C 36.890625 9.265625 36.402344 9.554688 36.195312 10.023438 C 36.1875 10.039062 35.757812 11.28125 35.34375 12.476562 C 40.976562 13.464844 44.804688 15.652344 45.011719 15.773438 C 45.964844 16.328125 46.285156 17.554688 45.726562 18.507812 C 45.359375 19.144531 44.6875 19.5 44 19.5 C 43.65625 19.5 43.3125 19.414062 42.996094 19.230469 C 42.941406 19.195312 37.324219 16 30.003906 16 C 22.679688 16 17.0625 19.199219 17.007812 19.230469 C 16.050781 19.785156 14.828125 19.457031 14.273438 18.503906 C 13.71875 17.550781 14.042969 16.328125 14.992188 15.773438 C 15.199219 15.652344 19.039062 13.457031 24.691406 12.472656 C 24.253906 11.261719 23.8125 10.039062 23.804688 10.023438 C 23.597656 9.550781 23.109375 9.257812 22.597656 9.308594 C 22.273438 9.335938 14.609375 9.992188 9.695312 13.945312 C 7.128906 16.316406 2 30.183594 2 42.175781 C 2 42.386719 2.054688 42.59375 2.160156 42.777344 C 5.703125 48.996094 15.359375 50.625 17.558594 50.695312 C 17.570312 50.695312 17.585938 50.695312 17.597656 50.695312 C 17.984375 50.695312 18.351562 50.511719 18.578125 50.195312 L 20.960938 46.972656 C 15.738281 45.714844 12.980469 43.734375 12.8125 43.613281 C 11.925781 42.960938 11.734375 41.707031 12.386719 40.816406 C 13.039062 39.933594 14.289062 39.734375 15.175781 40.386719 C 15.25 40.433594 20.34375 44 30 44 C 39.695312 44 44.773438 40.421875 44.824219 40.382812 C 45.710938 39.738281 46.964844 39.933594 47.613281 40.824219 C 48.261719 41.714844 48.074219 42.957031 47.191406 43.609375 C 47.023438 43.730469 44.277344 45.707031 39.070312 46.964844 L 41.421875 50.195312 C 41.648438 50.511719 42.015625 50.695312 42.402344 50.695312 C 42.417969 50.695312 42.429688 50.695312 42.441406 50.691406 C 44.644531 50.621094 54.300781 48.992188 57.839844 42.773438 C 57.945312 42.589844 58 42.382812 58 42.171875 C 58 30.183594 52.871094 16.316406 50.238281 13.890625 Z M 22 38 C 19.789062 38 18 35.761719 18 33 C 18 30.238281 19.789062 28 22 28 C 24.210938 28 26 30.238281 26 33 C 26 35.761719 24.210938 38 22 38 Z M 38 38 C 35.789062 38 34 35.761719 34 33 C 34 30.238281 35.789062 28 38 28 C 40.210938 28 42 30.238281 42 33 C 42 35.761719 40.210938 38 38 38 Z M 38 38 "/>
</g>
</svg>
