<?xml version="1.0" encoding="UTF-8"?>
<svg xmlns="http://www.w3.org/2000/svg" xmlns:xlink="http://www.w3.org/1999/xlink" viewBox="0 0 60 60" width="60px" height="60px">
<g id="surface11444549">
<path style=" stroke:none;fill-rule:nonzero;fill:rgb(54.11765%,57.647061%,60.784316%);fill-opacity:1;" d="M 20 7.5 C 13.109375 7.5 7.5 13.109375 7.5 20 L 7.5 40 C 7.5 46.890625 13.109375 52.5 20 52.5 L 40 52.5 C 46.890625 52.5 52.5 46.890625 52.5 40 L 52.5 20 C 52.5 13.109375 46.890625 7.5 40 7.5 Z M 20 12.5 L 40 12.5 C 44.136719 12.5 47.5 15.863281 47.5 20 L 47.5 40 C 47.5 44.136719 44.136719 47.5 40 47.5 L 20 47.5 C 15.863281 47.5 12.5 44.136719 12.5 40 L 12.5 20 C 12.5 15.863281 15.863281 12.5 20 12.5 Z M 42.5 15 C 41.121094 15 40 16.121094 40 17.5 C 40 18.878906 41.121094 20 42.5 20 C 43.878906 20 45 18.878906 45 17.5 C 45 16.121094 43.878906 15 42.5 15 Z M 30 17.5 C 23.109375 17.5 17.5 23.109375 17.5 30 C 17.5 36.890625 23.109375 42.5 30 42.5 C 36.890625 42.5 42.5 36.890625 42.5 30 C 42.5 23.109375 36.890625 17.5 30 17.5 Z M 30 22.5 C 34.136719 22.5 37.5 25.863281 37.5 30 C 37.5 34.136719 34.136719 37.5 30 37.5 C 25.863281 37.5 22.5 34.136719 22.5 30 C 22.5 25.863281 25.863281 22.5 30 22.5 Z M 30 22.5 "/>
</g>
</svg>
