<?xml version="1.0" encoding="UTF-8"?>
<svg xmlns="http://www.w3.org/2000/svg" xmlns:xlink="http://www.w3.org/1999/xlink" viewBox="0 0 60 60" width="60px" height="60px">
<g id="surface11474982">
<path style=" stroke:none;fill-rule:nonzero;fill:rgb(54.11765%,57.647061%,60.784316%);fill-opacity:1;" d="M 33.726562 5 C 32.847656 5.011719 32.09375 5.628906 31.914062 6.492188 L 29.09375 20.035156 C 22.96875 20.207031 17.4375 22.066406 13.355469 25.027344 C 12.230469 24.226562 10.859375 23.75 9.375 23.75 C 5.578125 23.75 2.5 26.828125 2.5 30.625 C 2.5 33.316406 4.046875 35.640625 6.296875 36.765625 C 6.285156 37.011719 6.25 37.253906 6.25 37.5 C 6.25 47.164062 16.882812 55 30 55 C 43.117188 55 53.75 47.164062 53.75 37.5 C 53.75 37.253906 53.714844 37.011719 53.703125 36.765625 C 55.953125 35.640625 57.5 33.316406 57.5 30.625 C 57.5 26.828125 54.421875 23.75 50.625 23.75 C 49.140625 23.75 47.769531 24.226562 46.644531 25.027344 C 43.007812 22.390625 38.226562 20.625 32.898438 20.144531 L 35.210938 9.0625 L 42.660156 10.480469 C 43.152344 12.355469 44.847656 13.75 46.875 13.75 C 49.289062 13.75 51.25 11.789062 51.25 9.375 C 51.25 6.960938 49.289062 5 46.875 5 C 45.429688 5 44.152344 5.714844 43.355469 6.796875 L 34.101562 5.035156 C 33.976562 5.011719 33.851562 5 33.726562 5 Z M 20.625 30 C 23.042969 30 25 31.957031 25 34.375 C 25 36.792969 23.042969 38.75 20.625 38.75 C 18.207031 38.75 16.25 36.792969 16.25 34.375 C 16.25 31.957031 18.207031 30 20.625 30 Z M 39.375 30 C 41.792969 30 43.75 31.957031 43.75 34.375 C 43.75 36.792969 41.792969 38.75 39.375 38.75 C 36.957031 38.75 35 36.792969 35 34.375 C 35 31.957031 36.957031 30 39.375 30 Z M 21.875 42.5 C 22.355469 42.5 22.835938 42.683594 23.199219 43.050781 C 23.265625 43.109375 25.328125 45 29.996094 45 C 34.714844 45 36.777344 43.070312 36.796875 43.050781 C 37.53125 42.316406 38.714844 42.316406 39.449219 43.050781 C 40.179688 43.78125 40.183594 44.96875 39.449219 45.699219 C 39.136719 46.011719 36.222656 48.746094 30 48.746094 C 23.777344 48.746094 20.863281 46.011719 20.550781 45.699219 C 19.816406 44.96875 19.816406 43.78125 20.550781 43.050781 C 20.914062 42.683594 21.394531 42.5 21.875 42.5 Z M 21.875 42.5 "/>
</g>
</svg>
