<?xml version="1.0" encoding="UTF-8"?>
<svg xmlns="http://www.w3.org/2000/svg" xmlns:xlink="http://www.w3.org/1999/xlink" viewBox="0 0 60 60" width="60px" height="60px">
<g id="surface11483235">
<path style=" stroke:none;fill-rule:nonzero;fill:rgb(54.11765%,57.647061%,60.784316%);fill-opacity:1;" d="M 50.929688 15.714844 C 53.054688 17.917969 53.332031 21.425781 53.332031 30 C 53.332031 38.574219 53.054688 42.082031 50.929688 44.285156 C 48.800781 46.492188 46.589844 46.667969 30 46.667969 C 13.410156 46.667969 11.199219 46.492188 9.070312 44.285156 C 6.945312 42.082031 6.667969 38.574219 6.667969 30 C 6.667969 21.425781 6.945312 17.917969 9.070312 15.714844 C 11.195312 13.507812 13.410156 13.332031 30 13.332031 C 46.589844 13.332031 48.800781 13.507812 50.929688 15.714844 Z M 26.21875 37.0625 L 37.554688 30.359375 L 26.21875 23.761719 Z M 26.21875 37.0625 "/>
</g>
</svg>
